<svg width="52" height="52" viewBox="0 0 52 52" fill="none" xmlns="http://www.w3.org/2000/svg">
<path d="M25.7891 7.82799C25.7891 10.4406 25.2745 13.0276 24.2747 15.4413C23.2749 17.855 21.8095 20.0481 19.9621 21.8955C18.1148 23.7428 15.9216 25.2082 13.5079 26.208C11.0942 27.2078 8.50723 27.7224 5.89466 27.7224L5.89466 24.1414C8.03697 24.1414 10.1583 23.7194 12.1375 22.8996C14.1168 22.0798 15.9151 20.8782 17.43 19.3633C18.9448 17.8485 20.1465 16.0501 20.9663 14.0709C21.7861 12.0916 22.2081 9.9703 22.2081 7.82799L25.7891 7.82799Z" fill="#18574A"/>
<path d="M25.7891 44.1056C25.7891 41.493 25.2745 38.906 24.2747 36.4923C23.2749 34.0786 21.8095 31.8855 19.9621 30.0381C18.1148 28.1908 15.9216 26.7254 13.5079 25.7256C11.0942 24.7258 8.50723 24.2112 5.89466 24.2112L5.89466 27.7922C8.03697 27.7922 10.1583 28.2141 12.1375 29.034C14.1168 29.8538 15.9151 31.0554 17.43 32.5703C18.9448 34.0851 20.1465 35.8835 20.9663 37.8627C21.7861 39.842 22.2081 41.9633 22.2081 44.1056L25.7891 44.1056Z" fill="#18574A"/>
<rect x="45.6826" y="27.7217" width="39.7888" height="3.51078" transform="rotate(180 45.6826 27.7217)" fill="#18574A"/>
</svg>
