<svg width="52" height="52" viewBox="0 0 52 52" fill="none" xmlns="http://www.w3.org/2000/svg">
<path d="M44.172 25.7891C41.5594 25.7891 38.9724 25.2745 36.5587 24.2747C34.145 23.2749 31.9519 21.8095 30.1045 19.9621C28.2572 18.1148 26.7918 15.9216 25.792 13.5079C24.7922 11.0942 24.2776 8.50723 24.2776 5.89466L27.8586 5.89466C27.8586 8.03697 28.2806 10.1583 29.1004 12.1375C29.9202 14.1168 31.1218 15.9151 32.6367 17.43C34.1515 18.9448 35.9499 20.1465 37.9291 20.9663C39.9084 21.7861 42.0297 22.2081 44.172 22.2081L44.172 25.7891Z" fill="white"/>
<path d="M7.8944 25.7891C10.507 25.7891 13.094 25.2745 15.5077 24.2747C17.9214 23.2749 20.1145 21.8095 21.9619 19.9621C23.8092 18.1148 25.2746 15.9216 26.2744 13.5079C27.2742 11.0942 27.7888 8.50723 27.7888 5.89466L24.2078 5.89466C24.2078 8.03697 23.7859 10.1583 22.966 12.1375C22.1462 14.1168 20.9446 15.9151 19.4297 17.43C17.9149 18.9448 16.1165 20.1465 14.1373 20.9663C12.158 21.7861 10.0367 22.2081 7.8944 22.2081L7.8944 25.7891Z" fill="white"/>
<rect x="24.2783" y="45.6826" width="39.7888" height="3.51078" transform="rotate(-90 24.2783 45.6826)" fill="white"/>
</svg>
