<svg width="34" height="11" viewBox="0 0 34 11" fill="none" xmlns="http://www.w3.org/2000/svg">
<path d="M26.316 1.65979C26.025 1.19583 26.1634 0.573937 26.673 0.373181C27.2779 0.134845 27.9238 0.00750851 28.5795 0.000322011C29.5674 -0.0105054 30.5391 0.251822 31.3873 0.758352C32.2355 1.26488 32.9273 1.99592 33.3863 2.87077C33.8452 3.74563 34.0536 4.73029 33.9883 5.71607C33.923 6.70186 33.5866 7.65043 33.0162 8.45711C32.4459 9.26379 31.6637 9.89719 30.7561 10.2874C29.8485 10.6776 28.8507 10.8095 27.8729 10.6685C27.2239 10.5749 26.6004 10.3635 26.0322 10.0474C25.5535 9.78121 25.4984 9.1465 25.8481 8.72498C26.1978 8.30346 26.8212 8.26189 27.3259 8.47467C27.5904 8.58619 27.8692 8.66406 28.156 8.70542C28.7721 8.79429 29.4008 8.71119 29.9727 8.46532C30.5446 8.21944 31.0374 7.82034 31.3968 7.31207C31.7561 6.8038 31.9681 6.20611 32.0092 5.58499C32.0504 4.96386 31.9191 4.34344 31.6299 3.79221C31.3407 3.24098 30.9048 2.78036 30.3704 2.46121C29.836 2.14205 29.2237 1.97676 28.6013 1.98358C28.3115 1.98676 28.0248 2.02717 27.7479 2.10283C27.2196 2.24718 26.6071 2.12375 26.316 1.65979Z" fill="black"/>
<path d="M26.316 1.65979C26.025 1.19583 26.1634 0.573937 26.673 0.373181C27.2779 0.134845 27.9238 0.00750851 28.5795 0.000322011C29.5674 -0.0105054 30.5391 0.251822 31.3873 0.758352C32.2355 1.26488 32.9273 1.99592 33.3863 2.87077C33.8452 3.74563 34.0536 4.73029 33.9883 5.71607C33.923 6.70186 33.5866 7.65043 33.0162 8.45711C32.4459 9.26379 31.6637 9.89719 30.7561 10.2874C29.8485 10.6776 28.8507 10.8095 27.8729 10.6685C27.2239 10.5749 26.6004 10.3635 26.0322 10.0474C25.5535 9.78121 25.4984 9.1465 25.8481 8.72498C26.1978 8.30346 26.8212 8.26189 27.3259 8.47467C27.5904 8.58619 27.8692 8.66406 28.156 8.70542C28.7721 8.79429 29.4008 8.71119 29.9727 8.46532C30.5446 8.21944 31.0374 7.82034 31.3968 7.31207C31.7561 6.8038 31.9681 6.20611 32.0092 5.58499C32.0504 4.96386 31.9191 4.34344 31.6299 3.79221C31.3407 3.24098 30.9048 2.78036 30.3704 2.46121C29.836 2.14205 29.2237 1.97676 28.6013 1.98358C28.3115 1.98676 28.0248 2.02717 27.7479 2.10283C27.2196 2.24718 26.6071 2.12375 26.316 1.65979Z" fill="black"/>
<rect x="6" y="4" width="22" height="2" rx="1" fill="black"/>
<path d="M8.68395 1.65979C8.975 1.19583 8.83661 0.573937 8.32703 0.373181C7.72207 0.134845 7.07615 0.00750851 6.42046 0.000322011C5.43258 -0.0105054 4.46091 0.251822 3.6127 0.758352C2.76449 1.26488 2.07272 1.99592 1.61374 2.87077C1.15476 3.74563 0.946427 4.73029 1.01172 5.71607C1.07702 6.70186 1.41341 7.65043 1.98377 8.45711C2.55413 9.26379 3.33627 9.89719 4.24388 10.2874C5.15149 10.6776 6.14927 10.8095 7.1271 10.6685C7.77611 10.5749 8.39959 10.3635 8.96783 10.0474C9.44648 9.78121 9.50163 9.1465 9.15193 8.72498C8.80223 8.30346 8.17882 8.26189 7.67415 8.47467C7.40964 8.58619 7.13076 8.66406 6.84397 8.70542C6.22786 8.79429 5.59917 8.71119 5.0273 8.46532C4.45543 8.21944 3.96261 7.82034 3.60324 7.31207C3.24386 6.8038 3.03191 6.20611 2.99077 5.58499C2.94963 4.96386 3.0809 4.34344 3.37009 3.79221C3.65928 3.24098 4.09516 2.78036 4.6296 2.46121C5.16404 2.14205 5.77628 1.97676 6.39873 1.98358C6.68847 1.98676 6.97518 2.02717 7.25209 2.10283C7.78042 2.24718 8.3929 2.12375 8.68395 1.65979Z" fill="black"/>
<path d="M8.68395 1.65979C8.975 1.19583 8.83661 0.573937 8.32703 0.373181C7.72207 0.134845 7.07615 0.00750851 6.42046 0.000322011C5.43258 -0.0105054 4.46091 0.251822 3.6127 0.758352C2.76449 1.26488 2.07272 1.99592 1.61374 2.87077C1.15476 3.74563 0.946427 4.73029 1.01172 5.71607C1.07702 6.70186 1.41341 7.65043 1.98377 8.45711C2.55413 9.26379 3.33627 9.89719 4.24388 10.2874C5.15149 10.6776 6.14927 10.8095 7.1271 10.6685C7.77611 10.5749 8.39959 10.3635 8.96783 10.0474C9.44648 9.78121 9.50163 9.1465 9.15193 8.72498C8.80223 8.30346 8.17882 8.26189 7.67415 8.47467C7.40964 8.58619 7.13076 8.66406 6.84397 8.70542C6.22786 8.79429 5.59917 8.71119 5.0273 8.46532C4.45543 8.21944 3.96261 7.82034 3.60324 7.31207C3.24386 6.8038 3.03191 6.20611 2.99077 5.58499C2.94963 4.96386 3.0809 4.34344 3.37009 3.79221C3.65928 3.24098 4.09516 2.78036 4.6296 2.46121C5.16404 2.14205 5.77628 1.97676 6.39873 1.98358C6.68847 1.98676 6.97518 2.02717 7.25209 2.10283C7.78042 2.24718 8.3929 2.12375 8.68395 1.65979Z" fill="black"/>
</svg>
