<svg width="46" height="35" viewBox="0 0 46 35" fill="none" xmlns="http://www.w3.org/2000/svg">
<path d="M32.8227 34.8728L22.7733 34.8728C21.4768 34.8728 20.5041 33.9001 20.504 32.6035L20.504 32.0631C20.504 30.7666 21.4768 29.7938 22.7733 29.7938L32.9313 29.7938C37.0378 29.7938 40.6575 26.7138 40.8738 22.6081C41.0897 18.1777 37.6318 14.5035 33.2011 14.5034L12.5073 14.4494C11.1023 14.4494 10.4001 16.1247 11.4268 17.0428L13.8042 19.4202C14.7227 20.3387 14.7227 21.7437 13.8042 22.6622L13.4258 23.0406C12.5074 23.9591 11.1023 23.9591 10.1838 23.0406L0.836627 13.8013C-0.135732 12.8289 -0.13608 11.2079 0.836627 10.2352L10.1838 0.888021C11.1023 -0.0304527 12.5074 -0.0304809 13.4259 0.888022L13.8043 1.26642C14.7227 2.18489 14.7228 3.58995 13.8043 4.50845L11.4268 6.8859C10.4545 7.85826 11.1027 9.47966 12.5074 9.47926L33.2551 9.47926C39.9548 9.47926 45.4121 14.6126 45.9525 21.0957C46.5469 28.7137 40.3873 34.8734 32.823 34.8735L32.8227 34.8728Z" fill="#737373"/>
</svg>
