<svg width="30" height="56" viewBox="0 0 30 56" fill="none" xmlns="http://www.w3.org/2000/svg">
<path d="M12.0611 40.443C12.0835 45.8125 7.17301 50.1363 1.80287 49.8521L1.77898 55.9114C9.63306 55.2893 18.1841 48.6532 18.1501 40.534L18.0448 15.3901C18.0372 13.6879 19.9988 12.9105 21.1821 14.0938L24.0754 16.987C25.1932 18.1048 26.8959 18.1119 28.0044 17.0035L28.461 16.5468C29.5695 15.4384 29.5623 13.7356 28.4446 12.6179L17.0694 1.24268C15.8857 0.0589372 13.9212 0.0511325 12.7478 1.22458L1.59816 12.5054C0.489699 13.6138 0.496863 15.3166 1.61461 16.4344L2.0751 16.8949C3.19288 18.0126 4.89565 18.0197 6.00407 16.9113L8.8732 14.0422C9.98056 12.8026 12.0144 13.6621 12.0215 15.3648L12.0611 40.443Z" fill="#808080"/>
</svg>
